<svg xmlns="http://www.w3.org/2000/svg" width="254.889" height="281.561" viewBox="0 0 254.889 281.561"><defs><style>.a{fill:#fff;}.b{fill:#fcdc4a;}.c{fill:#211715;}</style></defs><path class="a" d="M95.922,279.146H87.715c-3.885,0-2.31-9.21-1.666-10.6s1.919-2.289,4.125-2.708c7.644-1.455,9.537-4,10.172-11.311.272-3.135.553-5.08.707-8.2.108-2.181.3-4.635.651-8.093l51.325-.02c.347,3.469.543,5.928.651,8.113.154,3.123.436,5.068.708,8.2.634,7.313,2.527,9.856,10.171,11.311,2.207.419,3.481,1.314,4.125,2.708s2.35,10.62-1.427,10.62Z"></path><path class="a" d="M248.2,71.768a7,7,0,0,1,4.144,6.391c.013,33.76.033,83.9.05,126.929-6.564,0-219.592.081-249.946.091q0-3.472,0-7.018C2.432,156.8,2.414,110.206,2.4,78.249a6.993,6.993,0,0,1,6.991-7c45.586-.014,201.048-.072,235.956-.085A6.974,6.974,0,0,1,248.2,71.768Z"></path><path class="a" d="M7.185,237.887a6.994,6.994,0,0,1-4.724-6.618c0-8.231-.006-17-.01-26.089,3.94,0,242.949-.092,249.947-.092,0,9.085.006,17.854.009,26.086a6.99,6.99,0,0,1-6.991,7c-48.039.016-187.11.07-235.96.09A6.965,6.965,0,0,1,7.185,237.887Z"></path><path class="a" d="M131.875,138.621a4.72,4.72,0,0,0-9.439,0,4.443,4.443,0,0,0,2.43,4.277c0,1.215,0,1.447,0,4.347a2.256,2.256,0,0,0,2.25,2.256h.069a2.254,2.254,0,0,0,2.262-2.254c0-2.885,0-3.141,0-4.335A4.413,4.413,0,0,0,131.875,138.621Z"></path><path class="b" d="M164.134,112.315a3.218,3.218,0,0,0-2.567-3.153c-5-1.017-12.02-2.461-15.542-3.5-5.527-1.636-14.3-5.232-17.553-6.587a3.214,3.214,0,0,0-2.544.041,139.006,139.006,0,0,1-17.642,6.546c-3.522,1.042-10.54,2.486-15.542,3.5a3.218,3.218,0,0,0-2.567,3.153c-.038,10.483-.305,20.06.03,30.4a55.729,55.729,0,0,0,2.7,15.875,33.739,33.739,0,0,0,2.665,6.045,28.587,28.587,0,0,0,9.757,10.159,173.388,173.388,0,0,0,19.119,10.115,6.439,6.439,0,0,0,5.414,0c5.189-2.4,11.064-5.317,16.2-8.333a35.037,35.037,0,0,0,16.378-21.532,58.015,58.015,0,0,0,1.667-12.328C164.439,132.375,164.172,122.8,164.134,112.315Zm-34.688,30.6c0,1.194,0,1.45,0,4.335a2.254,2.254,0,0,1-2.262,2.254h-.069a2.256,2.256,0,0,1-2.25-2.256c0-2.9,0-3.132,0-4.347a4.443,4.443,0,0,1-2.43-4.277,4.72,4.72,0,0,1,9.439,0A4.413,4.413,0,0,1,129.446,142.912Z" style="fill: rgb(119, 177, 230);"></path><path class="c" d="M2.451,207.58l7.432,0,18.254-.007,26.579-.01,32.107-.012,35.112-.013,35.515-.014,33.428-.012,28.494-.011,21.079-.007,11.065,0h.882c3.088,0,3.093-4.8,0-4.8l-8.24,0-18.886.007-27.04.01-32.389.012-35.221.013-35.449.014-33.187.012-28.077.011-20.489.007-10.3,0h-.67c-3.088,0-3.093,4.8,0,4.8Z"></path><path class="c" d="M150.786,239.832c.483,5.117.742,10.247,1.265,15.362.345,3.372,1.017,7.007,3.625,9.419a12.784,12.784,0,0,0,4.522,2.577,22.736,22.736,0,0,0,2.686.745,9.308,9.308,0,0,1,2.85.8,2.73,2.73,0,0,1,.606.522c.109.154.164.348.272.5-.034-.048-.17-.62-.138-.307.049.479.279.994.377,1.472a15.286,15.286,0,0,1,.377,3.95c-.007.358-.024.716-.064,1.072-.044.4.068-.343-.01.032-.036.175-.079.347-.116.521a3.192,3.192,0,0,1-.119.386c.17-.479.047-.151.015-.054l-.089.155c-.123.183-.128.193-.015.032-.017-.043-.061-.048.19-.182-.346.185.749-.045.206-.068-.047,0-.1,0-.143,0-.171,0-.342,0-.513,0h-3.519l-13.7,0-37.889-.008-15.867,0h-7.01c-.193,0-.386,0-.579,0-.081,0-.164,0-.245,0-.382.015-.019.076.155.068-.083,0,.443.258.092.071-.451-.242.3.11,0,0-.072-.026-.276-.572-.049-.022a2.858,2.858,0,0,1-.13-.385,5.031,5.031,0,0,1-.245-1.745,18.725,18.725,0,0,1,.068-2.105c.012-.143.142-1.193.079-.771q.078-.523.179-1.042a13.431,13.431,0,0,0,.345-1.372c.014-.176.361-.4-.139.307.108-.152.162-.344.271-.5a2.9,2.9,0,0,1,.607-.522,9.356,9.356,0,0,1,2.85-.8,22.166,22.166,0,0,0,2.816-.793,10.91,10.91,0,0,0,6.978-6.634,22.347,22.347,0,0,0,1.055-5.481c.254-2.582.541-5.168.7-7.758.154-2.483.313-4.96.546-7.437a2.417,2.417,0,0,0-2.4-2.4,2.452,2.452,0,0,0-2.4,2.4c-.493,5.226-.7,10.47-1.3,15.687a19.217,19.217,0,0,1-.4,2.262c-.1.414-.222.819-.354,1.223-.049.151-.106.305-.166.451.167-.4-.128.245-.139.265a4.743,4.743,0,0,1-2.424,2.361,24.17,24.17,0,0,1-5.235,1.522,7.405,7.405,0,0,0-5.189,3.8,16.836,16.836,0,0,0-1.049,8.638c.373,3.075,1.964,5.49,5.3,5.5,1.3,0,2.6,0,3.906,0l14.4,0,39.193.008,15.355,0h4.625c1.615,0,3.232.062,4.512-1.154,2.451-2.329,1.961-6.589,1.5-9.6a12.01,12.01,0,0,0-.932-3.481,7.637,7.637,0,0,0-5.559-3.812,19.343,19.343,0,0,1-4.938-1.495,8.911,8.911,0,0,1-.9-.552c-.39-.276-.12-.1-.045-.034-.166-.14-.327-.288-.48-.444-.107-.108-.579-.694-.319-.337a8.2,8.2,0,0,1-.625-1.037,1.628,1.628,0,0,1-.255-.615c-.117-.363-.229-.725-.322-1.1a18.187,18.187,0,0,1-.445-2.553c-.261-2.54-.534-5.088-.707-7.637-.179-2.632-.328-5.26-.576-7.887a2.466,2.466,0,0,0-2.4-2.4,2.418,2.418,0,0,0-2.4,2.4Z"></path><path class="c" d="M111.889,265.688h30.565c3.089,0,3.094-4.8,0-4.8H111.889c-3.089,0-3.094,4.8,0,4.8Z"></path><path class="c" d="M0,78.249Q.01,102.334.02,126.421q.01,27.481.022,54.963.006,13.5.011,27,0,6.423,0,12.846l0,6.194a25.636,25.636,0,0,0,.3,6.186,9.523,9.523,0,0,0,9.1,7.057c2.065.043,4.137,0,6.2,0l14.675-.006,36.541-.015,42.552-.016,44.264-.017,41.681-.016,34.8-.013,13.478,0a15.92,15.92,0,0,0,4.263-.339,9.477,9.477,0,0,0,5.061-3.508c2.51-3.366,1.831-7.876,1.83-11.825l-.021-53.27q-.011-27.237-.022-54.473L254.753,92.5q0-5.577,0-11.152a21.542,21.542,0,0,0-.339-5.69A9.483,9.483,0,0,0,250.9,70.6c-3.381-2.523-8.162-1.834-12.168-1.833l-11.552.005-30.894.011-38.016.014-41.223.015-40.515.015-35.891.012-27.353.009c-2.14,0-4.49-.234-6.555.384A9.555,9.555,0,0,0,0,78.249c-.075,3.09,4.726,3.089,4.8,0A4.684,4.684,0,0,1,6.659,74.54a5.53,5.53,0,0,1,3.55-.894h5.284l12.7,0,32.178-.011,38.242-.013,40.764-.015,39.264-.014,34.223-.013,25.559-.009,4.512,0c1.9,0,3.877-.224,5.424,1.121a5.015,5.015,0,0,1,1.584,4.106l0,5.179q0,5.595,0,11.19.009,25.431.02,50.86L250,200.241q0,12.61.01,25.221c0,2,.143,4.064-.006,6.061a4.633,4.633,0,0,1-1.985,3.449c-1.83,1.263-4.553.8-6.676.8l-30.113.01-38.488.015-42.976.016-43.063.017-39.252.015-31.385.013c-2.084,0-4.169.012-6.253,0A4.833,4.833,0,0,1,6.093,234.4c-1.146-1.229-1.232-2.629-1.232-4.226q0-12.495-.01-24.991L4.83,151.355,4.809,99.779q0-10.765-.008-21.53C4.8,75.16,0,75.155,0,78.249Z"></path><path class="c" d="M97.646,163.421c-4.5-8.035-5.04-17.307-5.167-26.3-.066-4.693-.035-9.387.01-14.08.023-2.42.05-4.839.068-7.259a18.035,18.035,0,0,1,.02-3.463.883.883,0,0,1,.636-.8,16.031,16.031,0,0,1,2.557-.532q1.575-.323,3.149-.654c1.884-.4,3.767-.806,5.643-1.244a105.708,105.708,0,0,0,11.342-3.381q3-1.065,5.957-2.273,1.515-.618,3.018-1.265c.827-.354,1.833-1.076,2.747-.855a26.514,26.514,0,0,1,3.475,1.412q2.409.975,4.831,1.913c3.237,1.25,6.5,2.492,9.837,3.443,3.493.994,7.069,1.717,10.621,2.459q1.454.3,2.908.6a6.023,6.023,0,0,1,2.072.471c.527.386.366,1.127.369,1.7q.009,1.968.027,3.934c.041,4.71.105,9.42.105,14.13,0,8.94.3,18.32-2.943,26.809a32.865,32.865,0,0,1-13.753,16.122c-3.851,2.319-7.873,4.372-11.911,6.34q-1.415.689-2.837,1.358a10.237,10.237,0,0,1-2.633,1.066c-1.956.306-3.952-1.077-5.638-1.888-3.985-1.915-7.925-3.932-11.757-6.138a37.513,37.513,0,0,1-9.494-7.07,26.46,26.46,0,0,1-3.259-4.553c-1.545-2.674-5.7-.26-4.145,2.423a31.824,31.824,0,0,0,8.587,9.62,85.9,85.9,0,0,0,12.013,7.057q3.185,1.647,6.423,3.185c2.177,1.037,4.355,2.276,6.845,2.192s4.694-1.366,6.89-2.418q3.321-1.59,6.588-3.29a66.363,66.363,0,0,0,11.556-7.159,37.459,37.459,0,0,0,8-9.143c5.08-8.147,6.02-17.691,6.2-27.08.1-5.1.07-10.195.023-15.293-.024-2.5-.052-4.994-.071-7.492-.019-2.388.361-5.038-1.16-7.066-1.4-1.864-3.445-2.159-5.579-2.6-2.113-.434-4.224-.876-6.33-1.341a92.11,92.11,0,0,1-10.494-2.87c-3.625-1.261-7.2-2.664-10.757-4.107a18.128,18.128,0,0,0-4.288-1.548c-2.431-.3-4.773,1.248-6.956,2.147a132.265,132.265,0,0,1-13.47,4.74c-3.766,1.093-7.634,1.86-11.471,2.657-1.975.411-4.346.544-6,1.785-2.019,1.512-2.266,3.632-2.279,5.984-.028,5.142-.107,10.284-.126,15.427-.036,10.043-.277,20.346,2.95,29.991a38.718,38.718,0,0,0,2.907,6.619C95.01,168.539,99.158,166.122,97.646,163.421Z"></path><path class="c" d="M119.789,128.538a7.525,7.525,0,0,1,2.014-5.119,7.649,7.649,0,0,1,10.7-.014c.172.177.338.359.5.55-.233-.283.174.244.214.3a9.548,9.548,0,0,1,.506.849c0-.006.322.67.176.328a7.54,7.54,0,0,1,.631,3.1c.04,3.086,4.84,3.094,4.8,0a12.16,12.16,0,0,0-7.935-11.388,12.109,12.109,0,0,0-16.4,11.388c-.04,3.089,4.76,3.091,4.8,0Z"></path><path class="c" d="M139.091,126.968l-23.86-.01a5.106,5.106,0,0,0-5.111,5.107c0,6.165,0,13.211-.006,19.411a5.107,5.107,0,0,0,5.108,5.11c6.95,0,16.663.009,23.859.011a5.106,5.106,0,0,0,5.11-5.109c0-6.2,0-13.242.006-19.409A5.105,5.105,0,0,0,139.091,126.968Zm-9.645,15.944c0,1.194,0,1.45,0,4.335a2.254,2.254,0,0,1-2.262,2.254h-.069a2.256,2.256,0,0,1-2.25-2.256c0-2.9,0-3.132,0-4.347a4.443,4.443,0,0,1-2.43-4.277,4.72,4.72,0,0,1,9.439,0A4.413,4.413,0,0,1,129.446,142.912Z"></path><path class="c" d="M250.825,16.836l2.026-2.493a1.971,1.971,0,0,0-1.023-3.147l-3.1-.826a1.97,1.97,0,0,1-1.461-2.01l.173-3.207a1.97,1.97,0,0,0-2.676-1.945l-3,1.156A1.97,1.97,0,0,1,239.4,3.6L237.656.9a1.97,1.97,0,0,0-3.308,0L232.6,3.6a1.97,1.97,0,0,1-2.363.768l-3-1.156a1.97,1.97,0,0,0-2.676,1.945l.173,3.207a1.97,1.97,0,0,1-1.461,2.01l-3.1.826a1.971,1.971,0,0,0-1.023,3.147l2.026,2.493a1.969,1.969,0,0,1,0,2.484l-2.026,2.493a1.971,1.971,0,0,0,1.023,3.147l3.1.826a1.97,1.97,0,0,1,1.461,2.01L224.567,31a1.97,1.97,0,0,0,2.676,1.945l3-1.156a1.97,1.97,0,0,1,2.363.768l1.745,2.7a1.97,1.97,0,0,0,3.308,0l1.745-2.7a1.97,1.97,0,0,1,2.363-.768l3,1.156A1.97,1.97,0,0,0,247.437,31l-.173-3.207a1.97,1.97,0,0,1,1.461-2.01l3.1-.826a1.971,1.971,0,0,0,1.023-3.147l-2.026-2.493A1.969,1.969,0,0,1,250.825,16.836Z"></path><path class="c" d="M214.729,38.673q-2.409,2.052-4.774,4.156c-.383.34-4.726,3.984-4.6,4.2,0-.007.566-.23.556-.224.225-.132.314.425.091.031a4.735,4.735,0,0,0-.93-.852l-2.2-2.01q-2.1-1.913-4.2-3.819-8.965-8.13-18.069-16.106c-2.972-2.589-5.962-5.158-9-7.668a2.469,2.469,0,0,0-3.4,0,2.42,2.42,0,0,0,0,3.394c6.2,5.12,12.22,10.451,18.216,15.8q4.89,4.367,9.741,8.775,2.283,2.073,4.56,4.155c1.559,1.425,3.036,3.169,5.332,3.072a5.274,5.274,0,0,0,3.4-1.821q1.371-1.276,2.764-2.526,2.917-2.623,5.9-5.167a2.42,2.42,0,0,0,0-3.394,2.449,2.449,0,0,0-3.394,0Z"></path></svg>