<svg xmlns="http://www.w3.org/2000/svg" width="413.788" height="303.745" viewBox="0 0 413.788 303.745"><defs><style>.a{fill:#fff;}.b{fill:#fcdc4a;}.c{fill:#211715;}</style></defs><path class="a" d="M310.507,213.436c2.967,4.975,7.294,11.944,9.989,16.175-.773.381-1.312.651-1.312.651a88.973,88.973,0,0,1-12.156,5.566l-3.515,1.258V208.368H307.6C308.117,209.37,309.175,211.2,310.507,213.436Z"></path><path class="a" d="M380.545,266.463a30.905,30.905,0,0,0,3.061-3.286l.639-.656c1.334-6.569,3.063-16.449,4.883-27.306-7.836.762-18.534,1.805-18.534,1.805a113.6,113.6,0,0,1-16.39-.77c-7.233-.912-15.3-3.682-20.06-5.51-1.507-.579-2.683-1.063-3.4-1.364-2.539,1.459-4.633,2.631-6.014,3.373a2.017,2.017,0,0,1-2.641-.664c-.424-.646-.983-1.514-1.635-2.538a88.9,88.9,0,0,1-16.941,7.5c0,13.3,0,27.6,0,38.932h7.2c16.981-.675,48.582-2.081,58.842-3.992A23.058,23.058,0,0,0,380.545,266.463Z"></path><path class="a" d="M343.883,121.632c6.388-5.595,16.261-9.879,25.089-12.251a32.37,32.37,0,0,1-10.709-4.886q-.454-.316-.906-.654l-.7-.451c-4.866,1.973-10.342,4.348-13.826,6.185l-.7,3.57.736,3.875Z"></path><path class="a" d="M329.188,48.931q-3.393-2.553-6.565-5.386a36.285,36.285,0,0,0-1.134,11.337c-.157,5.2-.355,12.42-5.115,15a4.852,4.852,0,0,0-2.21,2.219c-1.14,2.589,1.091,3.751,2.473,5.244a7.97,7.97,0,0,1,1.808,3.376,49.345,49.345,0,0,0,1.054,7.5,20.972,20.972,0,0,0,1.693,5.028,9.931,9.931,0,0,0,5.467,5.046c3.938,1.443,9.328,1.959,12.818,1.016a1.729,1.729,0,0,1,2.043,1.02,41.239,41.239,0,0,1,2.094,5.349l1.006,3c3.878-1.9,9.216-4.161,13.715-5.946,2.46-2.507,3.359-6.577,3.224-9.354-.21-4.312-1.877-8.472-3.444-12.548,5.111-2.319,8.023-6.112,8.309-11.748.108-2.146-.674-4.755-2.382-6a4.958,4.958,0,0,0-4.193-.653,5.618,5.618,0,0,0-1,.352l-2.978-.132a17.975,17.975,0,0,1-6.28-1.8A101.564,101.564,0,0,1,329.188,48.931Z"></path><path class="a" d="M359.133,19.005q-2.388-.183-5.027-.147a43.265,43.265,0,0,0-12.285,2.3c-8.043,2.765-14.63,9.318-18.088,16.592a30.833,30.833,0,0,0-1.854,5.139l.925.822A101.605,101.605,0,0,0,349.587,60.84a17.975,17.975,0,0,0,6.28,1.8l2.978.132a5.618,5.618,0,0,1,1-.352,4.958,4.958,0,0,1,4.193.653c1.708,1.249,2.49,3.858,2.382,6-.286,5.636-3.2,9.429-8.309,11.748,1.567,4.076,3.234,8.236,3.444,12.548.154,3.178-1.045,8.049-4.388,10.333a32.863,32.863,0,0,0,28.334,5.556,11.571,11.571,0,0,0,8.083-9.113,35.489,35.489,0,0,0-.212-9.86c-.773-4.853-2.089-10.3.3-22.845.725-3.809,1.579-8.586,1.317-12.908a34.938,34.938,0,0,0-7.5-19.61C380.023,25.958,372.331,20.015,359.133,19.005Z"></path><path class="a" d="M358.761,81.437a3.725,3.725,0,0,0-3.859,3.7,3.662,3.662,0,0,0,4.08,3.528c2.4-.073,3.923-1.623,3.857-3.77A3.722,3.722,0,0,0,358.761,81.437Z"></path><path class="a" d="M56.52,95.407c-5.568-2.679-11.01-4.833-13.8-5.854l.747-2.361c.238-.754.5-1.792.719-2.8l.564.128c9.083,2.938,22.942,7.588,31.4,12.015a1.706,1.706,0,0,1,.788.646,1.38,1.38,0,0,1,.075.982c-.491,1.815-.495,1.785-1.029,3.924l4.976,4.143A23.188,23.188,0,0,1,81.3,110.8q.045,5.665.091,11.31c-1.4-3.341-2.851-6.611-4.321-9.772a30.791,30.791,0,0,0-5.91-7.85C67.884,101.346,62.138,98.11,56.52,95.407Z"></path><path class="a" d="M131.729,115a5.857,5.857,0,0,1-1.141,1.382,9.592,9.592,0,0,1-3.714,1.433c-2.85.755-5.787,1.847-7.681,3.851a9.331,9.331,0,0,0-2.214,7.869l-3.572,3.973c3.178,2.961,7.559,7.146,10.733,10.144,3.862-.806,7.681-1.715,11.486-2.657a5.819,5.819,0,0,0,3.244-1.56,20.918,20.918,0,0,0,3.737-4.3c.338-.483.894-1.311,1.54-2.3l.559-.2c3.057-1.089,8.233-3.029,12.674-4.137a8.211,8.211,0,0,0,1.647-.7,2.942,2.942,0,0,0,1.433-2.742c-.167-1.7-1.26-2.167-3.389-2.347a19.723,19.723,0,0,0-7.368.676l-.657.17a2.132,2.132,0,0,0-.85-1.682c-1.067-.739-2.783,0-3.356.43-.591.441-1.116.836-1.59,1.2l-4.612-4.734a26.353,26.353,0,0,0,3.043-5.282,6.3,6.3,0,0,0,.687-2.987c-.081-1.112-.34-1.732-1.237-2a4.587,4.587,0,0,0-3.287.349,16.764,16.764,0,0,0-5.74,5.559C131.978,114.609,131.855,114.806,131.729,115Z"></path><path class="a" d="M151.165,180.375a3.927,3.927,0,0,0,2.476-1.261,3.027,3.027,0,0,0,.205-2.98,2.537,2.537,0,0,0-1.916-1.465l-1-.18.12-.2a3.428,3.428,0,0,0,.247-2.214,3,3,0,0,0-2.647-2.318c-7-1.224-14.567-2.138-21.644-3.285a19.262,19.262,0,0,0,4.89-6.957,2.7,2.7,0,0,0-.143-2.752,2.318,2.318,0,0,0-1.831-.949,5.3,5.3,0,0,0-2.8.709c-3.806,2.19-10.739,6.066-13.029,7.6a12.655,12.655,0,0,0-3.623,3.488h-2.721l.043.051a1.345,1.345,0,0,1,.283.795c.536,7.876.4,14.935.263,22.664,5.064,1.52,11.767,1.468,16.442,1.162,1.644-.107,13.209-1.187,18-1.85,1.707-.236,3.712-.634,3.011-4.072,1.318-.172,2.547-.344,3.614-.509a1.835,1.835,0,0,0,1.515-2.04,2.877,2.877,0,0,0-1.378-2.251l-1.465-.794,2.863-.359C151.016,180.4,151.091,180.387,151.165,180.375Z"></path><path class="a" d="M117.555,137.413c-2.843-2.691-5.538-5.223-7.038-6.547a2.1,2.1,0,0,0-2.716-.064c-.625.5-1.414,1.138-2.316,1.867-4.1,3.314-10.5,8.54-14.221,11.665l-1.629,1.5a105.688,105.688,0,0,1,3.239,17.617l.23,3.772.261.006c.605.016,1.208.026,1.812.038.482.01.965.021,1.448.028.629.01,1.263.012,1.895.017.456,0,.91.009,1.369.01.733,0,1.476-.007,2.219-.013.364,0,.722,0,1.09-.008,1.118-.016,2.251-.041,3.407-.077a2.435,2.435,0,0,1,.3.011c.031,0,.059.01.089.014a1.648,1.648,0,0,1,.2.041.943.943,0,0,1,.09.029,1.341,1.341,0,0,1,.186.081l.067.037a1.046,1.046,0,0,1,.214.174h2.725a12.647,12.647,0,0,1,3.624-3.488c.587-.393,1.483-.943,2.551-1.577v-2.974c3.473-3.99,6.365-7.626,9.529-11.607a2.031,2.031,0,0,0-.325-2.7C123.755,143.3,120.572,140.268,117.555,137.413Z"></path><path class="a" d="M26.013,141.681a87.25,87.25,0,0,1,1.181-17.911c1.79-10.67,4.15-20.16,11.68-30.83l.3-.27a29.343,29.343,0,0,0,2.12-3.62c3.37,1.11,22.63,8.5,29.87,15.44a30.791,30.791,0,0,1,5.91,7.85c7.36,15.83,14.31,34.36,15.8,51.11l.235,3.776c4.432.113,8.784.144,13.5,0a1.259,1.259,0,0,1,1.473,1.233c.6,8.812.359,16.6.216,25.451a1.525,1.525,0,0,1-1.2,1.41c-5.425.527-10.435.925-15.367,1.14.25,10.51-1.29,21.461-2.488,29.383-2.1,13.81-8.26,22.17-15.25,26.75-8.02,5.25-28.9,5.27-41.93,2.9l-3.35-.6c-1.92-10.15-4.4-25.07-6.79-39.67l1.14-6.72c1.61-10.85,3.5-23.48,3.8-27.91a163.8,163.8,0,0,0,.36-20.71C26.728,152.839,26.182,147.177,26.013,141.681Z"></path><path class="a" d="M108.45,59.524a4.976,4.976,0,0,0-2.109-2.423c-4.694-2.962-4.4-10.362-4.2-15.7a39.943,39.943,0,0,0,.119-8.32,15.25,15.25,0,0,0-9.728-2.171c-8.274.943-15.556,5.731-20.372,10.077-2.7,2.634-3.421,4.591-6.033,8.65a12.7,12.7,0,0,0-1.279-1.6,5.894,5.894,0,0,0-2.481-1.564,5.084,5.084,0,0,0-4.336.38c-1.834,1.161-2.814,3.777-2.85,5.98a12.942,12.942,0,0,0,2.874,8.78c-.119.283-.189.447-.189.447-2.01,4.736-9.117,12-14.74,14.68a9.806,9.806,0,0,1,1.525,4.565,16.6,16.6,0,0,1-.439,2.983c.25.091.485.193.732.286,8.629,2.793,21.433,7.1,29.9,11.289l1.193-3.09a53.674,53.674,0,0,0,2.485-6.247,1.775,1.775,0,0,1,2.161-.9c3.507,1.2,9.058,1.047,13.188-.159a10.183,10.183,0,0,0,5.941-4.789,21.464,21.464,0,0,0,2.078-5.028,50.637,50.637,0,0,0,1.594-7.6,8.176,8.176,0,0,1,2.082-3.332C107.077,63.288,109.439,62.252,108.45,59.524Z"></path><path class="a" d="M311.418,195.094v13.274H99.363V195.094Z"></path><path class="b" d="M387.355,184.1c-.654-5.708,2.582-19.578,3.249-23.448,2.992-17.375.743-29.07-6.117-39.874l-3.373-5.019s-1.632-2.427-3.622-5.389a33.6,33.6,0,0,1-8.485-.992c-9.425,2.53-20.048,7.234-26.354,13.394a71.142,71.142,0,0,0-6.445,13.776c-1.8,4.972-4.239,12.427-4.982,18.923a38.745,38.745,0,0,0-.358,6.817c.057,3.26,2.523,19.183,4.4,24.229l1.586,3.422a8.817,8.817,0,0,1-2.761,2.806c-9.319,5.862-16.4,10.09-26.581,15.429,1.679,3.411,11.563,19.321,14.58,23.914a2.017,2.017,0,0,0,2.641.664c1.381-.742,3.475-1.914,6.014-3.373.716.3,1.892.785,3.4,1.364,4.763,1.828,12.827,4.6,20.06,5.51a113.6,113.6,0,0,0,16.39.77s10.7-1.043,18.534-1.805c1.143-6.818,2.322-14.021,3.462-21.032-.417-1.768-.69-2.928-.69-2.928A269.7,269.7,0,0,1,387.355,184.1Z" style="fill: rgb(119, 177, 230);"></path><path class="b" d="M107.271,230.372v-8.5c-5.742-2.194-9.846-3.636-16.619-6.349-.443,3.757-.956,7.263-1.42,10.319-2.1,13.81-8.261,22.174-15.25,26.75-8.018,5.25-28.9,5.274-41.932,2.905l-3.343-.608c.4,2.1.771,4,1.117,5.643,4.09,4.36,9.77,6.7,18.768,7.657,16.757,1.927,38.167,2.852,58.679,3.8V230.372Z" style="fill: rgb(119, 177, 230);"></path><path class="b" d="M82.522,5.731C94.026,10.8,98.9,19.548,99.711,21.5a28.54,28.54,0,0,1,2.635,11.655,15.149,15.149,0,0,0-9.818-2.237c-8.274.943-15.556,5.731-20.372,10.077-2.7,2.634-3.421,4.591-6.033,8.65a7.217,7.217,0,0,0-3.76-3.162,5.084,5.084,0,0,0-4.336.38c-1.834,1.161-2.814,3.777-2.85,5.98a12.942,12.942,0,0,0,2.874,8.78c-.119.283-.189.447-.189.447-2.01,4.737-9.117,12-14.74,14.68-1.825-3.133-4.882-6.154-6.809-8.559a41.931,41.931,0,0,1-9.319-30.1,41.361,41.361,0,0,1,8.278-20.611C45.746,4.084,56.668,2.384,63.355,2A41.706,41.706,0,0,1,82.048,5.525Q82.286,5.627,82.522,5.731Z" style="fill: rgb(119, 177, 230);"></path><path class="c" d="M337.193,185.978c-1.589-4.363-2.276-9.145-3.036-13.707A63.3,63.3,0,0,1,332.9,158.9c.32-7.131,2.525-14.18,4.893-20.864a81.847,81.847,0,0,1,3.743-9.092,27.563,27.563,0,0,1,2.695-4.872,17.74,17.74,0,0,1,3.6-3.02,67.694,67.694,0,0,1,21.7-9.741c2.481-.673,1.428-4.533-1.063-3.857a74.919,74.919,0,0,0-20.537,8.717,47.716,47.716,0,0,0-4.352,3.124c-.622.5-1.229,1.023-1.814,1.567a10.288,10.288,0,0,0-1.812,2.564,73.845,73.845,0,0,0-4.74,10.086,93.367,93.367,0,0,0-5.881,21.144,40.429,40.429,0,0,0-.371,9.016c.21,2.277.544,4.547.888,6.808.837,5.494,1.581,11.318,3.492,16.565.874,2.4,4.741,1.363,3.857-1.064Z"></path><path class="c" d="M312.424,207.817q7.1-3.833,14.018-8,3.525-2.127,7.013-4.317a14.944,14.944,0,0,0,5.27-4.782c2.411-3.9,3.291-8.4,4.128-12.833,1.073-5.689,1.968-11.41,2.857-17.129.725-4.668,1.292-9.32,2.333-13.935.565-2.507-3.291-3.578-3.857-1.064-.872,3.866-1.439,7.745-2,11.664-.762,5.368-1.643,10.728-2.587,16.067-.776,4.394-1.345,9.077-3.25,13.16a10.041,10.041,0,0,1-3.686,4.626q-3.437,2.177-6.917,4.284-7.56,4.6-15.346,8.8c-2.267,1.222-.249,4.677,2.019,3.454Z"></path><path class="c" d="M305.887,209.379c1.789,3.469,3.918,6.784,5.953,10.11q3.612,5.9,7.328,11.744c1.283,2.006,2.644,4.257,5.455,3.66a14.477,14.477,0,0,0,3.7-1.835q2.128-1.192,4.242-2.411,7.659-4.425,15.188-9.073c5.618-3.47,11.229-7,16.555-10.907a2.06,2.06,0,0,0,.717-2.737,2.015,2.015,0,0,0-2.736-.717c-9.091,6.672-18.885,12.456-28.6,18.153q-3.672,2.152-7.381,4.238-.912.51-1.827,1.013c-.191.105-.838.341-.638.41-.351-.121-.862-1.264-1.1-1.632q-3.537-5.522-6.951-11.122c-2.2-3.59-4.512-7.166-6.445-10.913-1.18-2.288-4.633-.267-3.454,2.019Z"></path><path class="c" d="M379.114,147.509c-.506,7.959-1.457,15.9-2.69,23.773a119.662,119.662,0,0,1-4.375,19.744,33.326,33.326,0,0,1-6.941,12.423c-1.758,1.878,1.065,4.712,2.828,2.828,5.558-5.938,8.311-13.874,10.075-21.679a231.734,231.734,0,0,0,3.8-23.311c.554-4.58,1.012-9.173,1.3-13.778.163-2.57-3.838-2.56-4,0Z"></path><path class="c" d="M382.191,261.763a22.713,22.713,0,0,1-13.329,8.321c-1.646.333-2.805.443-4.381.627-2.016.234-4.037.429-6.059.607-10.443.92-20.922,1.456-31.393,1.952q-8.156.385-16.314.705c-2.566.1-2.579,4.1,0,4,10.531-.419,21.062-.887,31.584-1.511,9.02-.535,18.191-.916,27.114-2.433a25.877,25.877,0,0,0,15.607-9.44c1.623-1.972-1.191-4.818-2.829-2.828Z"></path><path class="c" d="M393.829,210.724c-1.416-6.617-2.667-13.262-3.621-19.962a50.3,50.3,0,0,1-.856-10.582,86.177,86.177,0,0,1,1.32-9.419c1.191-6.544,2.665-12.986,3.088-19.65a53.1,53.1,0,0,0-2.752-21.676c-1.973-5.367-5-9.984-8.167-14.688-1.429-2.126-4.9-.126-3.454,2.018,2.617,3.894,5.288,7.717,7.114,12.07a48.04,48.04,0,0,1,3.344,20.664c-.267,6.542-1.658,12.84-2.854,19.245-.617,3.305-1.18,6.629-1.513,9.976a41.952,41.952,0,0,0,.433,9.887c1.027,7.786,2.417,15.5,4.061,23.18.538,2.516,4.4,1.451,3.857-1.063Z"></path><path class="c" d="M330.223,231.308a111.982,111.982,0,0,0,16.085,5.441,92.731,92.731,0,0,0,24.286,2.271c2.571-.048,2.579-4.048,0-4-7.94.146-15.912-.251-23.63-2.231a113.4,113.4,0,0,1-15.678-5.338,2.012,2.012,0,0,0-2.46,1.4,2.051,2.051,0,0,0,1.4,2.46Z"></path><path class="c" d="M331.554,179.815a10.534,10.534,0,0,1-2.067,3.077q-1.793,1.926-3.592,3.845l-7.184,7.69c-1.756,1.879,1.066,4.714,2.828,2.828l7.607-8.142c2.4-2.568,4.895-4.935,6.266-8.234a2.012,2.012,0,0,0-1.4-2.46,2.052,2.052,0,0,0-2.461,1.4Z"></path><path class="c" d="M348.042,146.821c.93-5.552,3.291-11.208,7.575-15a12.8,12.8,0,0,1,8.628-3.267,15.765,15.765,0,0,1,7.2,1.448c2.571,1.31,5.69,3.963,6.077,7.038a2.065,2.065,0,0,0,2,2,2.012,2.012,0,0,0,2-2c-.9-7.155-8.017-11.7-14.7-12.384a17.626,17.626,0,0,0-11.563,2.454,22.81,22.81,0,0,0-7.225,7.862,32.507,32.507,0,0,0-3.843,10.789,2.06,2.06,0,0,0,1.4,2.46,2.015,2.015,0,0,0,2.46-1.4Z"></path><path class="c" d="M342.944,116.25c-.127-1.378-.672-3.433.28-4.482a6.251,6.251,0,0,1,1.879-1.106c.829-.414,1.665-.813,2.5-1.2,3.694-1.719,7.454-3.292,11.238-4.8a2.061,2.061,0,0,0,1.4-2.46,2.014,2.014,0,0,0-2.46-1.4c-4.36,1.737-8.7,3.546-12.943,5.555-1.883.892-3.953,1.684-5.154,3.482-1.295,1.939-.944,4.229-.742,6.412a2.055,2.055,0,0,0,2,2,2.014,2.014,0,0,0,2-2Z"></path><path class="c" d="M345.542,105.141a40.586,40.586,0,0,0-1.645-4.381,7.634,7.634,0,0,0-1.3-2.38,3.884,3.884,0,0,0-3.648-1,18.485,18.485,0,0,1-3.922.4,21.3,21.3,0,0,1-8.107-1.523,9.07,9.07,0,0,1-4.61-5.44,36.374,36.374,0,0,1-1.773-8.871,9.927,9.927,0,0,0-1.053-4.02,11.67,11.67,0,0,0-2.5-3.031c-.424-.4-1.153-.92-1.121-1.562.06-1.179,1.648-1.741,2.428-2.308a11.347,11.347,0,0,0,3.954-5.871c1.9-5.9.652-12.157,1.664-18.168a2.059,2.059,0,0,0-1.4-2.46,2.016,2.016,0,0,0-2.46,1.4,69.8,69.8,0,0,0-.573,9.57,37.724,37.724,0,0,1-.668,7.021c-.438,1.971-1.174,4.119-2.909,5.322a9.945,9.945,0,0,0-3.112,2.637,5.3,5.3,0,0,0-.8,4.068c.614,2.483,3.235,3.5,4.211,5.747a13.131,13.131,0,0,1,.545,3.547c.208,1.649.465,3.292.829,4.913a18.084,18.084,0,0,0,4.014,8.511,13.291,13.291,0,0,0,6.746,3.634,26.071,26.071,0,0,0,10.027.664c.285-.04.569-.083.852-.139.163-.03.326-.065.487-.1q.54-.109.177-.068c-.2-.209.115.513.12.524a44.565,44.565,0,0,1,1.692,4.437c.742,2.458,4.6,1.41,3.857-1.064Z"></path><path class="c" d="M358.066,65.874c1.314-1.416,3.826-2.56,5.311-.694,1.249,1.569,1.2,3.875.834,5.672-.812,4.032-3.569,6.788-7.429,8.385a2.066,2.066,0,0,0-1.4,2.46,2.013,2.013,0,0,0,2.461,1.4c4.321-1.788,7.918-4.615,9.623-9.088s1.423-11.331-3.754-13.347c-3.03-1.179-6.364.11-8.478,2.387-1.749,1.884,1.073,4.72,2.829,2.828Z"></path><path class="c" d="M326.907,62.3c-.591,1.5-.624,5.063,2.115,5.61,3.66.3,4.248-3.96,3.2-6.08C331.367,60.092,328.467,59.144,326.907,62.3Z"></path><path class="c" d="M322.476,53.18a33.464,33.464,0,0,1,6.25-19.845A29.6,29.6,0,0,1,344.2,22.507c11.939-3.464,25.413-1.62,34.968,6.64,4.681,4.046,9.033,8.958,11.361,14.751a35.914,35.914,0,0,1,1.8,19.784c-1.081,6.488-2.374,12.907-1.911,19.522.371,5.3,1.79,10.39,1.306,15.759a9.518,9.518,0,0,1-4.537,7.36,15.443,15.443,0,0,1-6.138,1.821,31.245,31.245,0,0,1-17.762-2.978,34.386,34.386,0,0,1-4.92-3.052,2.013,2.013,0,0,0-2.736.718,2.046,2.046,0,0,0,.717,2.736,35.05,35.05,0,0,0,20.914,6.807c5.723-.026,11.9-1.13,15.638-5.882,4.361-5.545,2.941-13.147,1.939-19.589a55.028,55.028,0,0,1,.461-17.267,89.2,89.2,0,0,0,1.724-12.468,37.44,37.44,0,0,0-5.8-20.549,50.345,50.345,0,0,0-6.593-7.843A39.63,39.63,0,0,0,369.733,19.1a43.786,43.786,0,0,0-22.06-1.534,34.387,34.387,0,0,0-28.69,29.459,44.688,44.688,0,0,0-.507,6.156c-.023,2.575,3.977,2.577,4,0Z"></path><path class="c" d="M357.974,105.567a12.786,12.786,0,0,0,5.157-7.957,20.458,20.458,0,0,0-.488-9.842c-.658-2.486-4.518-1.432-3.857,1.064a21.79,21.79,0,0,1,.76,4.4,12.967,12.967,0,0,1-.013,1.661,7.538,7.538,0,0,1-.212,1.445c-.485,2.289-1.412,4.482-3.366,5.78a2.047,2.047,0,0,0-.718,2.736,2.021,2.021,0,0,0,2.737.718Z"></path><path class="c" d="M360.091,80.46l0-.009.2.477-.007-.02a4.525,4.525,0,0,0-.21-.5,1.924,1.924,0,0,0-1.993-.954,1.486,1.486,0,0,0-.743.237l-.4.313a1.99,1.99,0,0,0-.514.882l-.072.532a1.987,1.987,0,0,0,.273,1.009l0,.01-.2-.478.007.021a4.711,4.711,0,0,0,.21.5,1.52,1.52,0,0,0,.515.561,2.067,2.067,0,0,0,2.222.157l.4-.313a2,2,0,0,0,.515-.882l.071-.532a1.991,1.991,0,0,0-.273-1.01Z"></path><path class="c" d="M321.39,45.127a105.521,105.521,0,0,0,16.1,11.764q4.235,2.506,8.7,4.595c3.093,1.448,6.225,2.92,9.68,3.15,2.57.17,2.559-3.831,0-4-2.964-.2-5.815-1.716-8.452-2.978q-4.239-2.029-8.28-4.445A99.758,99.758,0,0,1,324.218,42.3c-1.922-1.7-4.761,1.119-2.828,2.829Z"></path><path class="c" d="M358.761,79.437a5.984,5.984,0,0,0-5.622,4.014,5.6,5.6,0,0,0,2.255,6.249,6.649,6.649,0,0,0,6.693.153,5.593,5.593,0,0,0,2.621-6.03,5.84,5.84,0,0,0-5.947-4.386,2,2,0,0,0,0,4c.2,0,.393.008.59.017.422.021-.49-.1-.084-.007.072.016.144.03.215.048.172.042.341.13.512.162-.466-.089-.3-.132-.1-.029.09.047.179.1.266.152.071.044.137.1.209.141.216.125-.392-.348-.131-.1.118.115.232.229.346.348.248.26-.222-.352-.1-.137.039.07.092.134.133.2s.077.142.118.211c.226.379-.132-.419-.026-.079.048.156.091.31.132.468s-.014.314-.024-.24c0,.1.019.2.022.3.006.173-.006.343-.015.516s-.114.214.032-.236c-.034.106-.044.225-.073.333s-.225.621-.072.253-.084.125-.139.212c-.041.065-.092.125-.13.191.264-.449.246-.3.138-.189-.129.133-.275.253-.4.387.366-.384.266-.2.1-.089-.054.035-.11.068-.165.1-.086.05-.174.091-.261.137-.152.08-.231.011.2-.082-.166.036-.329.115-.5.157-.105.027-.21.046-.316.069-.36.081.492-.033.089-.01-.193.011-.383.026-.577.023s-.8-.118-.129.019c-.173-.035-.345-.061-.516-.108-.067-.018-.132-.038-.2-.059-.5-.163.308.172.011.016-.145-.076-.289-.148-.427-.237-.052-.034-.106-.081-.159-.109.445.231.265.214.108.072-.1-.1-.193-.211-.3-.306-.18-.165.3.441.11.142-.051-.08-.106-.158-.153-.241s-.081-.179-.133-.255c.246.359.143.377.089.208a4.937,4.937,0,0,1-.14-.478c-.047-.214.029-.4,0,.125,0-.066-.013-.144-.017-.211-.011-.2.015-.4.016-.6,0,.56-.066.374-.015.195.031-.108.053-.219.088-.327.019-.057.051-.122.065-.181q-.214.49-.085.212.043-.086.09-.171c.032-.056.065-.111.1-.166s.071-.108.109-.16c-.207.26-.261.331-.163.211.129-.127.241-.269.377-.391.178-.159.311-.114-.091.062a2.644,2.644,0,0,0,.257-.169c.074-.045.153-.082.227-.126.4-.235-.395.131-.04.008a4.986,4.986,0,0,1,.637-.183c.074-.016.152-.023.225-.041-.612.146-.123.025.057.018a2,2,0,0,0,0-4Z"></path><path class="c" d="M318.174,228.535A86.136,86.136,0,0,1,306.5,233.9a2,2,0,0,0,1.063,3.857,94.091,94.091,0,0,0,12.633-5.768,2.02,2.02,0,0,0,.718-2.737,2.042,2.042,0,0,0-2.737-.717Z"></path><path class="c" d="M318.9,85.93a14.233,14.233,0,0,0,7.018-1.455,2.017,2.017,0,0,0,.718-2.736,2.044,2.044,0,0,0-2.736-.718c-.238.128-.48.244-.728.35l.478-.2a10.894,10.894,0,0,1-2.693.7l.531-.072a17.761,17.761,0,0,1-2.588.131,2,2,0,0,0,0,4Z"></path><path class="c" d="M112.2,168.619c1.064-1.825,3.177-2.981,4.941-4.039,2.228-1.337,4.489-2.62,6.746-3.907q1.636-.933,3.273-1.865c.593-.339,2.17-1.473,2.881-.95.637.468-.776,2.562-1.059,3.046a17.821,17.821,0,0,1-2.868,3.664c-1.83,1.816,1,4.645,2.828,2.829a18.777,18.777,0,0,0,5.064-7.888,4.527,4.527,0,0,0-1.265-4.61,5.17,5.17,0,0,0-4.734-.872,13.515,13.515,0,0,0-3.331,1.593l-3.346,1.906c-2.147,1.225-4.3,2.448-6.415,3.725-2.3,1.387-4.785,2.975-6.169,5.349-1.3,2.229,2.157,4.245,3.454,2.019Z"></path><path class="c" d="M126.967,168.473c4.717.755,9.45,1.392,14.174,2.1,2.321.345,4.683.627,6.979,1.116.607.129,1.123.24,1.249.921.116.627-.008.689-.454.79a22.431,22.431,0,0,1-4.188.154c-1.79.035-3.581.044-5.372.043-3.195,0-6.389-.044-9.583-.079-2.575-.028-2.577,3.972,0,4,5.96.065,11.937.216,17.894-.055,1.636-.074,3.266-.192,4.5-1.413a4.907,4.907,0,0,0,.829-5.163,5.12,5.12,0,0,0-4.031-3.093c-2.1-.386-4.212-.7-6.322-1.012-4.87-.73-9.753-1.383-14.616-2.162a2.062,2.062,0,0,0-2.46,1.4,2.016,2.016,0,0,0,1.4,2.46Z"></path><path class="c" d="M151.4,176.6a1.021,1.021,0,0,1,.626.311.364.364,0,0,1-.107-.243,6.965,6.965,0,0,1,.19.7c.077.66-.412.847-1.013.993a42.5,42.5,0,0,1-6.338.684c-4.705.4-9.42.68-14.125,1.083-2.546.218-2.569,4.22,0,4,6.232-.534,12.488-.833,18.706-1.526,2.617-.291,5.958-.769,6.672-3.86a4.934,4.934,0,0,0-3.548-6c-2.5-.608-3.567,3.248-1.063,3.857Z"></path><path class="c" d="M148.534,183.287c.244.151.343.6.388.7.112-.117.121-.128.028-.035s-.082.084.077-.057c-.234.137-.049-.007.081-.029-.308.052-.616.113-.926.158-1.77.262-3.546.486-5.323.7-3.722.443-7.454.84-11.192,1.125a2.049,2.049,0,0,0-2,2,2.016,2.016,0,0,0,2,2c4.7-.358,9.393-.874,14.067-1.482,1.172-.152,2.343-.31,3.511-.482a4.216,4.216,0,0,0,2.533-1.1c2.087-2.077,1.078-5.526-1.226-6.951-2.195-1.358-4.206,2.1-2.018,3.454Z"></path><path class="c" d="M107.813,193.048c6.5,1.889,13.494,1.571,20.167.962q4.717-.43,9.428-.938c1.418-.154,2.837-.312,4.252-.493,1.867-.238,3.779-.376,5.168-1.805,1.795-1.847-1.03-4.678-2.828-2.828-.776.8-2.544.662-3.635.792-1.407.167-2.816.321-4.225.47q-4.318.454-8.643.846c-6.156.554-12.624.878-18.621-.863-2.477-.719-3.535,3.14-1.063,3.857Z"></path><path class="c" d="M92.678,145.748c2.916-2.448,5.862-4.86,8.811-7.267q2.187-1.785,4.379-3.562.951-.773,1.905-1.542c.258-.208,1.048-1.077,1.375-1.049.246.02.775.688.957.853q.825.751,1.64,1.513,2.02,1.878,4.021,3.778c2.708,2.561,5.4,5.136,8.118,7.687.869.816.733.575,0,1.5q-1.371,1.722-2.751,3.438-2.889,3.578-5.9,7.058c-1.68,1.936,1.137,4.776,2.829,2.828q3.015-3.473,5.895-7.058,1.383-1.713,2.751-3.437c.872-1.1,1.831-2.105,1.84-3.59.013-2.324-1.978-3.7-3.5-5.143q-2.331-2.207-4.658-4.418c-2.745-2.6-5.434-5.313-8.316-7.765a4.323,4.323,0,0,0-3.526-1.179A6.023,6.023,0,0,0,105.622,130q-2.185,1.761-4.361,3.532c-3.821,3.107-7.639,6.219-11.411,9.386-1.974,1.657.868,4.474,2.828,2.828Z"></path><path class="c" d="M118.908,129.005c-.5-3.506,1.359-6.31,4.417-7.832,3.132-1.558,7.317-1.393,9.571-4.374a36.607,36.607,0,0,1,2.883-3.826c.956-.974,2.372-2.408,3.781-2.608.179-.025.746.105.873.029q.344.114-.015-.081-.245-.479-.064.058a6.82,6.82,0,0,1-.432,2.19,24.958,24.958,0,0,1-3.011,5.208,2.014,2.014,0,0,0,.718,2.736,2.045,2.045,0,0,0,2.736-.718c2.047-2.806,4.8-6.977,3.81-10.621-1.048-3.864-5.9-3.086-8.424-1.34a18.53,18.53,0,0,0-3.781,3.41,23.638,23.638,0,0,0-1.493,2.016,4.665,4.665,0,0,1-1.658,1.9c-1.533.751-3.384.933-5,1.511a17.132,17.132,0,0,0-4.914,2.587c-3.332,2.629-4.438,6.741-3.859,10.821a2.014,2.014,0,0,0,2.461,1.4,2.055,2.055,0,0,0,1.4-2.461Z"></path><path class="c" d="M126.177,131.689a4.234,4.234,0,0,1,.893-.518l-.477.2a4.612,4.612,0,0,1,1.077-.29l-.532.072a5.136,5.136,0,0,1,1.311,0l-.531-.071a6.005,6.005,0,0,1,1.129.277,2,2,0,0,0,2.258-2.938,2.217,2.217,0,0,0-1.195-.919,8.035,8.035,0,0,0-1.7-.353,5.077,5.077,0,0,0-1.238,0,6.1,6.1,0,0,0-3.016,1.087,2.225,2.225,0,0,0-.919,1.2,2.042,2.042,0,0,0,.2,1.541,2.017,2.017,0,0,0,1.2.919,1.937,1.937,0,0,0,1.542-.2Z"></path><path class="c" d="M128.249,137.544a39.285,39.285,0,0,1,5.018-9.885,25.526,25.526,0,0,1,1.623-2.152c.06-.07.373-.389.219-.255s.222-.14.306-.184a.52.52,0,0,1,.079-.03c-.206.02.129,0,.14.006-.217-.078.073.031.12.058-.237-.135.248.1-.071-.014l.059.064c.079.086.08.084,0,0-.045,0-.1-.065.019.073-.012-.013-.129-.329-.066-.119s-.016-.162-.013-.18a7.346,7.346,0,0,0-.026.786c-.037.916-.079,1.833-.14,2.747s-.145,1.821-.257,2.728l-.036.291c.028-.224.008-.057-.01.069q-.052.372-.108.744c-.09.6-.188,1.2-.288,1.806a2.061,2.061,0,0,0,1.4,2.46,2.017,2.017,0,0,0,2.461-1.4c.357-2.157.674-4.324.828-6.507s.709-4.882-1.127-6.509a4.318,4.318,0,0,0-4.069-.914,5.427,5.427,0,0,0-2.7,2.024,44.966,44.966,0,0,0-4.008,5.913,45.776,45.776,0,0,0-3.207,7.317,2,2,0,0,0,3.858,1.064Z"></path><path class="c" d="M139.681,129.756a28.772,28.772,0,0,1,4.676-4.592c.508-.395,1.017-.813,1.552-1.168a2.356,2.356,0,0,1,.907-.417c.11-.019.6-.009.285-.06.114.018-.21-.142-.154-.141s.136.335.074.132c.113.368-.068.446-.1.9-.015.207.22-.442.038-.09-.065.125-.122.253-.186.378-.173.341-.359.674-.547,1.006-.468.825-.96,1.636-1.458,2.442q-1.513,2.45-3.113,4.843c-.477.713-.962,1.42-1.474,2.108-.355.477-.733.945-1.131,1.4-.221.251-.448.5-.685.734-.084.083-.168.166-.254.247.007-.006-.5.419-.249.231a2.063,2.063,0,0,0-.717,2.737,2.013,2.013,0,0,0,2.736.717,23.04,23.04,0,0,0,5.012-5.831q1.863-2.768,3.605-5.615c1.039-1.7,2.39-3.572,2.54-5.615a4.135,4.135,0,0,0-2.516-4.273,5.368,5.368,0,0,0-4.569.67,30.534,30.534,0,0,0-7.1,6.428,2.058,2.058,0,0,0,0,2.828,2.013,2.013,0,0,0,2.828,0Z"></path><path class="c" d="M137.455,138.023a2.724,2.724,0,0,1-.264.284q.238-.154-.057.043a4.865,4.865,0,0,1-.526.286c.265-.121-.42.137-.493.159-.2.062-.407.117-.612.171-1.161.3-2.331.577-3.5.858-2.411.58-4.827,1.138-7.252,1.657a2,2,0,1,0,1.063,3.857c2.6-.556,5.186-1.157,7.768-1.782,2.238-.541,5.1-.861,6.7-2.7a2.051,2.051,0,0,0,0-2.829,2.019,2.019,0,0,0-2.829,0Z"></path><path class="c" d="M150.235,125.32a20.077,20.077,0,0,1,3.635-.657,19,19,0,0,1,2.067-.02c.281.011.561.028.842.049.178.013.355.029.533.046.264.029.309.034.137.014.259.04.508.121.765.169.195.07.224.075.085.016s-.111-.05.059.033q.285.181-.03-.058a1.751,1.751,0,0,1,.207.206q-.242-.319-.067-.035c-.094-.241-.1-.25-.031-.028.025.439,0-.24.035.2q-.018.364.012.076a3,3,0,0,1-.116.4c.052-.149-.131.158-.2.221a1.088,1.088,0,0,1-.375.239,16.627,16.627,0,0,1-3,.928c-1.314.377-2.616.791-3.913,1.223-2.25.749-4.476,1.565-6.71,2.362a2.051,2.051,0,0,0-1.4,2.46,2.018,2.018,0,0,0,2.461,1.4c2.064-.736,4.121-1.49,6.2-2.191,1.207-.407,2.42-.8,3.641-1.164,1.08-.323,2.217-.538,3.274-.926a6.477,6.477,0,0,0,3.1-2.042,4.827,4.827,0,0,0,.95-3.64c-.352-2.546-2.424-3.55-4.746-3.83a23.063,23.063,0,0,0-8.483.686c-2.494.633-1.437,4.491,1.063,3.857Z"></path><path class="c" d="M146.209,118.21a27.138,27.138,0,0,0,7.181-.663,2.015,2.015,0,0,0,1.4-2.46,2.045,2.045,0,0,0-2.46-1.4q-1.116.251-2.25.4l.532-.071a25.181,25.181,0,0,1-4.4.188,2.014,2.014,0,0,0-2,2,2.044,2.044,0,0,0,2,2Z"></path><path class="c" d="M145.61,150.46q12.441,19.484,25.261,38.72c1.417,2.136,4.882.135,3.454-2.019q-12.777-19.263-25.261-38.719c-1.381-2.164-4.845-.16-3.454,2.018Z"></path><path class="c" d="M79.032,106.759a41.142,41.142,0,0,1,.3,7.5l.063,7.856c.021,2.573,4.021,2.579,4,0q-.031-4.084-.065-8.17a44.91,44.91,0,0,0-.439-8.255,2.021,2.021,0,0,0-2.461-1.4,2.043,2.043,0,0,0-1.4,2.461Z"></path><path class="c" d="M77.757,93.788c.706-1.472,1.34-2.979,1.909-4.51.2-.549.4-1.1.587-1.656.037-.11.075-.219.111-.329.207-.635-.235.568-.325.241.119.434,3.349.719,3.689.758a25.754,25.754,0,0,0,4.72.1,20.943,20.943,0,0,0,8.137-1.876,13.474,13.474,0,0,0,5.841-6.552,39.7,39.7,0,0,0,2.747-9.776,6.674,6.674,0,0,1,1.24-3.464,27.867,27.867,0,0,1,2.56-2.292,5.344,5.344,0,0,0,.164-7.564c-.815-.934-1.96-1.444-2.792-2.349a7.384,7.384,0,0,1-1.532-2.85c-1.878-6.094.031-12.7-.592-18.926a2.056,2.056,0,0,0-2-2,2.014,2.014,0,0,0-2,2c.583,5.821-.692,11.621.178,17.437a13.677,13.677,0,0,0,2.726,6.712,18.842,18.842,0,0,0,2.679,2.283c.628.538,1.174,1.374.633,2.122a17.018,17.018,0,0,1-2.292,2.008,9.362,9.362,0,0,0-2.6,4.214c-.3,1.237-.384,2.551-.646,3.8a43.552,43.552,0,0,1-1.356,5.086c-.876,2.575-2.246,5.131-4.7,6.5-2.317,1.3-5.413,1.52-8.012,1.544a18.578,18.578,0,0,1-4.351-.4c-1.635-.375-3.014-.886-4.547.188a4.969,4.969,0,0,0-1.7,2.763A45.133,45.133,0,0,1,74.3,91.769c-1.108,2.31,2.34,4.341,3.454,2.019Z"></path><path class="c" d="M104.35,34.6a31.55,31.55,0,0,0-3.406-15.129,33.015,33.015,0,0,0-7.325-8.987A43.534,43.534,0,0,0,59.225.412C48.01,1.977,38.484,9.1,32.189,18.329a42.107,42.107,0,0,0-4.553,38.7,47.793,47.793,0,0,0,8.551,14.1c2.136,2.461,4.65,4.948,5.926,8,1.029,2.464.18,5.072-.574,7.527s3.1,3.52,3.857,1.063c.661-2.154,1.449-4.773,1.2-7.048-.313-2.881-1.874-5.391-3.6-7.644-2.986-3.892-6.262-7.122-8.725-11.357a38.4,38.4,0,0,1-2.408-34.432C36.236,17.013,45.2,7.963,56.134,5.09c10.319-2.711,22.184-.478,31.21,5.569a31.934,31.934,0,0,1,9.624,9.91A26.888,26.888,0,0,1,100.35,34.6c-.021,2.574,3.979,2.576,4,0Z"></path><path class="c" d="M96.083,48.622c.5,1.574.29,5.224-2.551,5.595-3.765.057-4.074-4.344-2.858-6.442C91.67,46.057,94.7,45.286,96.083,48.622Z"></path><path class="c" d="M102.793,69.309c-.54-.027-1.078-.073-1.614-.142l.532.072a12.676,12.676,0,0,1-3.211-.832l.478.2a9.133,9.133,0,0,1-1.244-.65A2.02,2.02,0,0,0,95,68.677a2.042,2.042,0,0,0,.718,2.736,14.607,14.607,0,0,0,7.078,1.9,2.014,2.014,0,0,0,2-2,2.045,2.045,0,0,0-2-2Z"></path><path class="c" d="M56.135,61.055a19.368,19.368,0,0,1-2.224,3.732c-.118.16-.237.32-.359.478.2-.253-.154.191-.191.238q-.427.533-.876,1.049-.891,1.031-1.849,2a31.289,31.289,0,0,1-8.1,6.254,2,2,0,0,0,2.019,3.454,36.04,36.04,0,0,0,8.91-6.879,28.772,28.772,0,0,0,6.124-8.31,2.065,2.065,0,0,0-.717-2.736,2.015,2.015,0,0,0-2.737.717Z"></path><path class="c" d="M66.909,47.375A8.138,8.138,0,0,0,59.5,44.259c-2.863.4-4.757,2.595-5.708,5.192-1.614,4.4-.178,9.786,2.662,13.35a18.119,18.119,0,0,0,6.209,4.766,2.053,2.053,0,0,0,2.737-.718,2.019,2.019,0,0,0-.718-2.736c-3.839-1.9-6.8-4.8-7.394-9.081-.279-2-.2-4.584,1.343-6.1,1.768-1.73,4.182-.3,5.453,1.269a2.014,2.014,0,0,0,2.829,0,2.047,2.047,0,0,0,0-2.828Z"></path><path class="c" d="M92.528,28.913a37.436,37.436,0,0,0-17.176,6.964,31.4,31.4,0,0,0-6.067,5.275,66.374,66.374,0,0,0-4.641,7.091c-1.377,2.183,2.082,4.193,3.454,2.019a66.233,66.233,0,0,1,3.912-6.154,26.379,26.379,0,0,1,5.361-4.777,33.514,33.514,0,0,1,15.157-6.418,2.063,2.063,0,0,0,2-2,2.012,2.012,0,0,0-2-2Z"></path><path class="c" d="M103.667,31.664a13.158,13.158,0,0,0-2.373-2.265,11.307,11.307,0,0,0-2.454-1.436,1.487,1.487,0,0,0-.743-.238,1.526,1.526,0,0,0-.8.036,2,2,0,0,0-1.4,2.46,1.928,1.928,0,0,0,.919,1.2A11.269,11.269,0,0,1,99.3,32.875l-.405-.313a11.471,11.471,0,0,1,1.94,1.931,2,2,0,0,0,1.414.586,2.037,2.037,0,0,0,1.415-.586,2.015,2.015,0,0,0,.585-1.414l-.071-.532a2.009,2.009,0,0,0-.514-.883Z"></path><path class="c" d="M56.135,61.055a19.368,19.368,0,0,1-2.224,3.732c-.118.16-.237.32-.359.478.2-.253-.154.191-.191.238q-.427.533-.876,1.049-.891,1.031-1.849,2a31.289,31.289,0,0,1-8.1,6.254,2,2,0,0,0,2.019,3.454,36.04,36.04,0,0,0,8.91-6.879,28.772,28.772,0,0,0,6.124-8.31,2.065,2.065,0,0,0-.717-2.736,2.015,2.015,0,0,0-2.737.717Z"></path><path class="c" d="M37.146,91.931A66.206,66.206,0,0,0,27.087,114.16a102.225,102.225,0,0,0-3.116,22.845c-.116,7.77.779,15.506,1.266,23.251a133.676,133.676,0,0,1-.629,22.964c-.921,8.277-2.263,16.513-3.483,24.75a2.066,2.066,0,0,0,1.4,2.46,2.014,2.014,0,0,0,2.46-1.4C26.118,201.362,27.3,193.7,28.274,186a152.729,152.729,0,0,0,1.117-21.718c-.131-7.775-1.2-15.507-1.4-23.283a97.638,97.638,0,0,1,2.2-22.468A65.476,65.476,0,0,1,40.6,93.95c1.48-2.113-1.987-4.114-3.454-2.019Z"></path><path class="c" d="M40.9,93.679a35.327,35.327,0,0,0,2.12-3.62l-2.258.919a119.74,119.74,0,0,1,11.531,4.657c5.4,2.442,10.98,5.086,15.685,8.741a27.706,27.706,0,0,1,6.229,6.939c2.1,3.289,3.5,7.161,5.014,10.747a184.445,184.445,0,0,1,8.427,24.088A106.173,106.173,0,0,1,91.1,167.23c.156,2.557,4.157,2.575,4,0-.928-15.262-5.312-29.86-11.08-43.957-3.018-7.374-5.834-15.147-11.9-20.618-4.5-4.06-10.154-6.884-15.594-9.449a132.9,132.9,0,0,0-14.706-6.085,2.011,2.011,0,0,0-2.259.919,35.22,35.22,0,0,1-2.12,3.62c-1.382,2.181,2.078,4.19,3.454,2.019Z"></path><path class="c" d="M77.958,102.437c.337-1.346.809-2.711,1.038-4.077.38-2.26-1.264-3.285-3.022-4.16-3.249-1.618-6.608-3.019-9.984-4.348-6.807-2.68-13.748-5.011-20.707-7.263-2.455-.8-3.506,3.066-1.064,3.857,5.406,1.749,10.8,3.552,16.127,5.52,2.752,1.015,5.492,2.068,8.193,3.213q1.859.786,3.687,1.641a19.715,19.715,0,0,1,3.5,1.816l-.718-.717q.173-.626-.022.087c-.055.2-.11.407-.166.61-.063.234-.127.468-.19.7-.182.684-.354,1.369-.526,2.055-.626,2.5,3.231,3.563,3.857,1.064Z"></path><path class="c" d="M31.518,257.423A105.628,105.628,0,0,0,51.605,259c6.243-.086,12.809-.525,18.763-2.548,12.143-4.124,18.672-17.341,20.651-29.195a176.9,176.9,0,0,0,2.741-28.619c.006-2.574-3.994-2.577-4,0a170.263,170.263,0,0,1-2.119,24.422c-1.005,6.807-2.6,13.453-6.363,19.308-2.541,3.953-6.216,7.864-10.6,9.716-5.227,2.21-11.272,2.664-16.876,2.862a100.371,100.371,0,0,1-21.223-1.378,2.056,2.056,0,0,0-2.46,1.4,2.017,2.017,0,0,0,1.4,2.46Z"></path><path class="c" d="M106.131,219.306c-4.694-1.774-9.4-3.508-14.065-5.362a2.014,2.014,0,0,0-2.46,1.4A2.047,2.047,0,0,0,91,217.8c4.663,1.854,9.371,3.588,14.064,5.362a2.017,2.017,0,0,0,2.461-1.4,2.044,2.044,0,0,0-1.4-2.46Z"></path><path class="c" d="M28.41,261.944a24.389,24.389,0,0,0,9.68,6.1,38.264,38.264,0,0,0,6.539,1.618,22.615,22.615,0,0,0,3.955.531c.733-.015,2.052.227,3.2.346,10.731,1.12,21.508,1.77,32.28,2.337,6.587.347,13.176.65,19.765.953,2.573.118,2.567-3.882,0-4-11.127-.511-22.255-1.017-33.37-1.75-5.132-.338-10.262-.726-15.383-1.212-4.7-.446-8.814-.7-13.381-1.9a21.656,21.656,0,0,1-10.456-5.845c-1.778-1.869-4.6.963-2.828,2.828Z"></path><path class="c" d="M33.674,136.01a216.919,216.919,0,0,0,1.388,23.753c.929,7.549,2.21,15.467,5.265,22.488A25.515,25.515,0,0,0,53.738,195c6.159,2.521,13,2.909,19.565,3.309a192.42,192.42,0,0,0,26.061-.323c2.551-.191,2.572-4.192,0-4a196.869,196.869,0,0,1-21.806.53c-6.494-.236-13.279-.441-19.561-2.265a22.443,22.443,0,0,1-13.136-9.889c-1.771-3-2.644-6.585-3.484-9.94a104.463,104.463,0,0,1-2.064-10.756,201.186,201.186,0,0,1-1.639-25.66c-.033-2.572-4.033-2.579-4,0Z"></path><path class="c" d="M109.038,196.5a4.26,4.26,0,0,0,1.269-3.531c.026-1.574.06-3.149.085-4.723.047-2.957.085-5.915.066-8.872-.019-2.99-.1-5.981-.263-8.967-.07-1.259.028-2.695-.7-3.789a3.487,3.487,0,0,0-3.138-1.4c-5.752.068-11.483.081-17.234-.123-2.922-.1-5.937-.027-8.843-.344a7.791,7.791,0,0,1-4.279-2.437c-1.648-1.826-1.6-5.09-1.918-7.4-.562-4.093-1.055-8.2-1.52-12.3-1-8.824-1.036-18.829-7.2-25.9-3.121-3.581-7.671-5.131-12.324-5.253C48,111.33,42,112.87,38.947,117.2c-1.485,2.109,1.981,4.11,3.454,2.019a9.206,9.206,0,0,1,4.663-2.92,17.2,17.2,0,0,1,5.979-.836,12.542,12.542,0,0,1,9.4,3.973c2.821,3.176,4.081,7.639,4.826,11.724.7,3.824.88,7.77,1.319,11.632q.669,5.9,1.452,11.783c.329,2.444.42,5.2,1.245,7.548a10.883,10.883,0,0,0,9,6.637c5.306.414,10.7.455,16.022.534,3.029.045,6.059.039,9.088-.039.127,0,1.2,0,1.21-.035.1-.5-.364-.7-.5-.417a7.755,7.755,0,0,0,.133,2.332q.116,2.255.168,4.511c.075,3.1.071,6.208.036,9.311-.017,1.574-.043,3.147-.069,4.721q-.018,1.067-.04,2.134c-.008.422.158,1.626-.119,1.864-1.957,1.679.883,4.5,2.828,2.828Z"></path><path class="c" d="M170.531,190.2h57.434c2.574,0,2.578-4,0-4H170.531c-2.574,0-2.578,4,0,4Z"></path><path class="c" d="M105.274,208.37v83.3c0,2.574,4,2.578,4,0v-83.3c0-2.574-4-2.578-4,0Z"></path><path class="c" d="M301.514,208.37v83.3c0,2.574,4,2.578,4,0v-83.3c0-2.574-4-2.578-4,0Z"></path><path class="c" d="M309.418,195.094v13.274l2-2H99.363l2,2V195.094l-2,2H311.418c2.574,0,2.578-4,0-4H99.363a2.03,2.03,0,0,0-2,2v13.274a2.03,2.03,0,0,0,2,2H311.418a2.029,2.029,0,0,0,2-2V195.094C313.418,192.52,309.418,192.516,309.418,195.094Z"></path><path class="c" d="M33.741,287.067l-2.529,10.947a2,2,0,0,0,3.857,1.064L37.6,288.131a2,2,0,1,0-3.857-1.064Z"></path><path class="c" d="M32.944,265.128c-1.643-5.915-2.576-12.07-3.651-18.1-1.711-9.609-3.3-19.239-4.88-28.871q-2.383-14.556-4.729-29.12c-1.061-6.507-1.911-13.119-3.354-19.555-1.014-4.52-3.133-9.566-7.877-11.173-2.276-.771-5.909-.811-7.57,1.214a4.952,4.952,0,0,0-.812,3.87C.3,165.2.624,167,.9,168.805c2.245,14.7,4.209,29.434,6.124,44.177,1.706,13.123,3.342,26.255,5.183,39.36.679,4.839,1.384,9.677,2.21,14.494.755,4.395,1.82,8.808,4.394,12.534C25.189,288.605,37.03,289.5,47.3,289.5H98.573c2.574,0,2.578-4,0-4H58.413c-6.392,0-12.882.324-19.253-.257-4.65-.425-9.442-1.5-13.308-4.245-6.839-4.851-7.5-14.325-8.685-22.131-1.762-11.627-3.224-23.3-4.73-34.962-1.832-14.188-3.663-28.377-5.676-42.541q-.774-5.444-1.589-10.882-.394-2.623-.8-5.245c-.122-.784-.289-1.574-.363-2.364a1.966,1.966,0,0,1,.055-.976.328.328,0,0,1-.234.216c.239-.063.468-.146.713-.186a6.366,6.366,0,0,1,1.733-.035,4.959,4.959,0,0,1,2.381.968,10.3,10.3,0,0,1,3.113,5.091,59.915,59.915,0,0,1,1.8,8.524q.869,5.058,1.689,10.124c1.491,9.09,2.95,18.186,4.43,27.279,1.569,9.634,3.15,19.266,4.817,28.884,1.2,6.906,2.359,13.839,3.906,20.678.209.923.427,1.844.68,2.756.688,2.476,4.548,1.424,3.857-1.064Z"></path><path class="c" d="M384.729,269.414c1.571-5.654,2.474-11.533,3.507-17.3,1.65-9.219,3.182-18.459,4.7-27.7q2.343-14.273,4.64-28.554c1.077-6.625,2.121-13.26,3.329-19.863.609-3.331,1.365-7.631,4.239-9.819a4.921,4.921,0,0,1,2.672-.986,6.176,6.176,0,0,1,1.56.081c.143.028.553.15.541.149-.371-.057.049-.276-.089-.036.006-.012-.019.56-.052.886-.091.9-.283,1.8-.421,2.7q-.406,2.622-.8,5.245c-2.15,14.338-4.054,28.711-5.92,43.088-1.624,12.515-3.185,25.039-4.944,37.535-.66,4.688-1.345,9.374-2.143,14.04-.709,4.142-1.594,8.194-4.007,11.687-5.718,8.279-17.656,8.136-26.8,8.136H315.308c-2.574,0-2.579,4,0,4h41.415c6.527,0,13.177.369,19.666-.444,4.963-.622,10.012-1.907,14.075-4.957,7.631-5.73,8.674-15.228,10.006-24,1.845-12.15,3.368-24.349,4.942-36.536,1.887-14.617,3.774-29.235,5.875-43.823q.779-5.412,1.6-10.818c.276-1.8.6-3.6.828-5.411a4.955,4.955,0,0,0-.811-3.868c-1.66-2.024-5.29-1.984-7.565-1.214a10.325,10.325,0,0,0-5.487,4.722c-1.856,3.154-2.5,6.788-3.122,10.339-.562,3.186-1.091,6.377-1.618,9.569-1.516,9.194-2.99,18.4-4.485,27.592-1.623,9.989-3.257,19.977-4.978,29.95-1.248,7.232-2.458,14.493-4.067,21.656-.218.97-.446,1.938-.712,2.9-.69,2.484,3.168,3.545,3.857,1.064Z"></path><path class="c" d="M376.222,291.332l2.527,10.936a2.016,2.016,0,0,0,2.46,1.4,2.044,2.044,0,0,0,1.4-2.46l-2.527-10.937a2.016,2.016,0,0,0-2.46-1.4,2.044,2.044,0,0,0-1.4,2.46Z"></path></svg>